<?xml version="1.0" encoding="UTF-8"?>
<svg width="22px" height="65px" viewBox="0 0 22 65" version="1.1" xmlns="http://www.w3.org/2000/svg" xmlns:xlink="http://www.w3.org/1999/xlink">
    <!-- Generator: Sketch 46.2 (44496) - http://www.bohemiancoding.com/sketch -->
    <title>Logo  2</title>
    <desc>Created with Sketch.</desc>
    <defs></defs>
    <g id="Done" stroke="none" stroke-width="1" fill="none" fill-rule="evenodd">
        <g id="Forside" transform="translate(-22.000000, -37.000000)" fill="#FFFFFF">
            <g id="Navbar" transform="translate(0.000000, -3.000000)">
                <g id="Logo-" transform="translate(33.500000, 72.500000) rotate(-90.000000) translate(-33.500000, -72.500000) translate(1.000000, 61.000000)">
                    <path d="M2.59082712,0.22449288 L0.000101042359,21.1433875 L2.87556449,21.1433875 L3.27387347,17.2069999 L5.63705215,17.2069999 L6.06405716,21.1433875 L9.16747217,21.1433875 L6.40578242,0.22449288 L2.59082712,0.22449288 Z M4.44131688,6.35399364 L5.29552898,14.0860696 L3.61580081,14.0860696 L4.44131688,6.35399364 Z M12.5323848,0.224472923 L17.6000633,0.224472923 C20.2479793,0.224472923 20.9882156,1.60212876 20.9882156,3.6266023 L20.9882156,6.8319522 C20.9882156,8.60316697 20.2194854,9.41862427 19.3937672,9.72796319 C20.2194854,10.0371025 21.244257,10.6839202 21.244257,12.7926138 L21.244257,17.3195394 C21.244257,19.5405928 20.2479793,21.1433675 17.8280148,21.1433675 L12.5323848,21.1433675 L12.5323848,0.224472923 Z M15.7495735,11.6117374 L15.7495735,18.1910768 L16.7175593,18.1910768 C17.742533,18.1910768 17.9702825,17.7130983 17.9702825,16.7852811 L17.9702825,12.9612534 C17.9702825,12.0897159 17.742533,11.6117374 16.7175593,11.6117374 L15.7495735,11.6117374 Z M15.7495735,3.06420419 L15.7495735,8.4908071 L16.7175593,8.4908071 C17.6000633,8.4908071 17.8280148,7.90026912 17.8280148,7.02873167 L17.8280148,4.3855803 C17.8280148,3.51404284 17.6000633,3.06420419 16.7175593,3.06420419 L15.7495735,3.06420419 Z M33.104993,0.224452966 L33.104993,3.2609637 L30.4000891,3.2609637 L30.4000891,21.1433476 L27.2115964,21.1433476 L27.2115964,3.2609637 L24.5066924,3.2609637 L24.5066924,0.224452966 L33.104993,0.224452966 Z M36.5953194,21.1433276 L36.5953194,0.224433008 L39.8125081,0.224433008 L39.8125081,21.1433276 L36.5953194,21.1433276 Z M52.2339282,16.4758624 C52.2339282,19.4000132 51.2376505,21.3963469 48.1342355,21.3963469 L47.5932548,21.3963469 C44.5183337,21.3963469 43.4365742,19.4000132 43.4365742,16.4758624 L43.4365742,4.8355387 C43.4365742,1.91138785 44.5183337,0.0276136272 47.5649629,0.0276136272 L48.1057416,0.0276136272 C51.2376505,0.0276136272 52.2339282,1.93952771 52.2339282,4.80739884 L52.2339282,16.4758624 Z M48.9599537,4.6668991 C48.9599537,3.5983826 48.5897345,3.06412436 47.8494982,3.06412436 C47.0239821,3.06412436 46.7107508,3.57024274 46.7107508,4.6668991 L46.7107508,16.7007817 C46.7107508,17.6006586 46.9669942,18.3035565 47.8779921,18.3035565 C48.7606982,18.3035565 48.9599537,17.6006586 48.9599537,16.7007817 L48.9599537,4.6668991 Z M58.7963869,0.224452966 L61.5580767,11.4430779 L61.5580767,0.224452966 L64.490528,0.224452966 L64.490528,21.1433476 L61.871308,21.1433476 L58.7963869,9.10946497 L58.7963869,21.1433476 L55.8924295,21.1433476 L55.8924295,0.224452966 L58.7963869,0.224452966 Z" id="Logo--2"></path>
                </g>
            </g>
        </g>
    </g>
</svg>